<svg xmlns="http://www.w3.org/2000/svg" viewBox="0 0 83.14 143.69"><defs><style>.cls-1{fill:#010101;}</style></defs><title>Asset 1</title><g id="Layer_2" data-name="Layer 2"><g id="Layer_1-2" data-name="Layer 1"><path class="cls-1" d="M41.6,12.47s37,131.19,41.26,131.19C86.85,143.66,45.8,0,41.6,0,37.87,0-3.69,143.69.27,143.69,4.63,143.69,41.6,12.47,41.6,12.47Z"/><path class="cls-1" d="M37.64,81.52c-1.43-2,19.85-19.28,25.77-24a5.31,5.31,0,0,0,1.8-2.7,5.16,5.16,0,1,1,9.89,2.82,5.37,5.37,0,0,1-5,3.59,5.13,5.13,0,0,0-2.73,1.07C61.45,66.75,39.08,83.57,37.64,81.52Z"/></g></g></svg>